<svg width="444" height="119" viewBox="0 0 444 119" fill="none" xmlns="http://www.w3.org/2000/svg">
<mask id="mask0_1631_3022" style="mask-type:luminance" maskUnits="userSpaceOnUse" x="25" y="23" width="42" height="36">
<path d="M25 23H66.7708V58.6667H25V23Z" fill="white"/>
</mask>
<g mask="url(#mask0_1631_3022)">
<mask id="mask1_1631_3022" style="mask-type:luminance" maskUnits="userSpaceOnUse" x="25" y="23" width="42" height="36">
<path d="M66.7708 40.9479L56.3281 58.8958H35.4427L25 40.9479L35.4427 23H56.3281L66.7708 40.9479Z" fill="white"/>
</mask>
<g mask="url(#mask1_1631_3022)">
<path d="M66.7709 40.9479L56.3281 58.8959H35.4427L25 40.9479L35.4427 23H56.3281L66.7709 40.9479Z" stroke="black" stroke-width="2"/>
</g>
</g>
<mask id="mask2_1631_3022" style="mask-type:luminance" maskUnits="userSpaceOnUse" x="25" y="58" width="42" height="36">
<path d="M25 58H66.7708V93.6667H25V58Z" fill="white"/>
</mask>
<g mask="url(#mask2_1631_3022)">
<mask id="mask3_1631_3022" style="mask-type:luminance" maskUnits="userSpaceOnUse" x="25" y="58" width="42" height="36">
<path d="M66.7708 75.9479L56.3281 93.8958H35.4427L25 75.9479L35.4427 58H56.3281L66.7708 75.9479Z" fill="white"/>
</mask>
<g mask="url(#mask3_1631_3022)">
<path d="M66.7709 75.9479L56.3281 93.8959H35.4427L25 75.9479L35.4427 58H56.3281L66.7709 75.9479Z" stroke="black" stroke-width="2"/>
</g>
</g>
<mask id="mask4_1631_3022" style="mask-type:luminance" maskUnits="userSpaceOnUse" x="55" y="40" width="42" height="36">
<path d="M55 40H96.7708V75.6667H55V40Z" fill="white"/>
</mask>
<g mask="url(#mask4_1631_3022)">
<mask id="mask5_1631_3022" style="mask-type:luminance" maskUnits="userSpaceOnUse" x="55" y="40" width="42" height="36">
<path d="M96.7708 57.9479L86.3281 75.8958H65.4427L55 57.9479L65.4427 40H86.3281L96.7708 57.9479Z" fill="white"/>
</mask>
<g mask="url(#mask5_1631_3022)">
<path d="M96.7709 57.9479L86.3281 75.8959H65.4427L55 57.9479L65.4427 40H86.3281L96.7709 57.9479Z" stroke="black" stroke-width="2"/>
</g>
</g>
<mask id="mask6_1631_3022" style="mask-type:luminance" maskUnits="userSpaceOnUse" x="53" y="55" width="9" height="8">
<path d="M53.6777 55H61.5111V62.8333H53.6777V55Z" fill="white"/>
</mask>
<g mask="url(#mask6_1631_3022)">
<mask id="mask7_1631_3022" style="mask-type:luminance" maskUnits="userSpaceOnUse" x="53" y="55" width="9" height="8">
<path d="M57.5944 55C55.4277 55 53.6777 56.75 53.6777 58.9167C53.6777 61.0781 55.4277 62.8333 57.5944 62.8333C59.7559 62.8333 61.5111 61.0781 61.5111 58.9167C61.5111 56.75 59.7559 55 57.5944 55Z" fill="white"/>
</mask>
<g mask="url(#mask7_1631_3022)">
<path d="M53.6777 55H61.5111V62.8333H53.6777V55Z" fill="black"/>
</g>
</g>
<mask id="mask8_1631_3022" style="mask-type:luminance" maskUnits="userSpaceOnUse" x="61" y="72" width="8" height="8">
<path d="M61 72H68.8333V79.8333H61V72Z" fill="white"/>
</mask>
<g mask="url(#mask8_1631_3022)">
<mask id="mask9_1631_3022" style="mask-type:luminance" maskUnits="userSpaceOnUse" x="61" y="72" width="8" height="8">
<path d="M64.9167 72C62.75 72 61 73.75 61 75.9167C61 78.0781 62.75 79.8333 64.9167 79.8333C67.0781 79.8333 68.8333 78.0781 68.8333 75.9167C68.8333 73.75 67.0781 72 64.9167 72Z" fill="white"/>
</mask>
<g mask="url(#mask9_1631_3022)">
<path d="M61 72H68.8333V79.8333H61V72Z" fill="black"/>
</g>
</g>
<mask id="mask10_1631_3022" style="mask-type:luminance" maskUnits="userSpaceOnUse" x="31" y="55" width="8" height="8">
<path d="M31 55H38.8385V62.8333H31V55Z" fill="white"/>
</mask>
<g mask="url(#mask10_1631_3022)">
<mask id="mask11_1631_3022" style="mask-type:luminance" maskUnits="userSpaceOnUse" x="31" y="55" width="8" height="8">
<path d="M34.9167 55C32.7552 55 31 56.75 31 58.9167C31 61.0781 32.7552 62.8333 34.9167 62.8333C37.0833 62.8333 38.8385 61.0781 38.8385 58.9167C38.8385 56.75 37.0833 55 34.9167 55Z" fill="white"/>
</mask>
<g mask="url(#mask11_1631_3022)">
<path d="M31 55H38.8385V62.8333H31V55Z" fill="black"/>
</g>
</g>
<mask id="mask12_1631_3022" style="mask-type:luminance" maskUnits="userSpaceOnUse" x="0" y="35" width="10" height="10">
<path d="M0 35H9.33333V44.3333H0V35Z" fill="white"/>
</mask>
<g mask="url(#mask12_1631_3022)">
<mask id="mask13_1631_3022" style="mask-type:luminance" maskUnits="userSpaceOnUse" x="-1" y="34" width="11" height="12">
<path d="M9.5319 38.1973L6.00065 45.1921L-0.994141 41.6608L2.53711 34.666L9.5319 38.1973Z" fill="white"/>
</mask>
<g mask="url(#mask13_1631_3022)">
<mask id="mask14_1631_3022" style="mask-type:luminance" maskUnits="userSpaceOnUse" x="0" y="36" width="9" height="8">
<path d="M7.76669 41.6977C8.74065 39.7654 7.96461 37.4112 6.03753 36.4321C4.10523 35.4581 1.74586 36.2341 0.7719 38.1664C-0.202059 40.0987 0.573984 42.4529 2.50627 43.4268C4.43336 44.4008 6.79273 43.63 7.76669 41.6977Z" fill="white"/>
</mask>
<g mask="url(#mask14_1631_3022)">
<path d="M9.5319 38.1973L6.00065 45.1921L-0.994141 41.6608L2.53711 34.666L9.5319 38.1973Z" fill="black"/>
</g>
</g>
</g>
<mask id="mask15_1631_3022" style="mask-type:luminance" maskUnits="userSpaceOnUse" x="21" y="36" width="9" height="9">
<path d="M21.209 36.7812H29.0423V44.6198H21.209V36.7812Z" fill="white"/>
</mask>
<g mask="url(#mask15_1631_3022)">
<mask id="mask16_1631_3022" style="mask-type:luminance" maskUnits="userSpaceOnUse" x="21" y="36" width="9" height="9">
<path d="M25.1257 36.7812C22.959 36.7812 21.209 38.5365 21.209 40.6979C21.209 42.8646 22.959 44.6198 25.1257 44.6198C27.2871 44.6198 29.0423 42.8646 29.0423 40.6979C29.0423 38.5365 27.2871 36.7812 25.1257 36.7812Z" fill="white"/>
</mask>
<g mask="url(#mask16_1631_3022)">
<path d="M21.209 36.7812H29.0423V44.6198H21.209V36.7812Z" fill="black"/>
</g>
</g>
<path d="M6.19336 40.5938L25.7819 41.0104" stroke="black" stroke-width="1.22987"/>
<mask id="mask17_1631_3022" style="mask-type:luminance" maskUnits="userSpaceOnUse" x="93" y="53" width="10" height="10">
<path d="M93 53H102.333V62.3333H93V53Z" fill="white"/>
</mask>
<g mask="url(#mask17_1631_3022)">
<mask id="mask18_1631_3022" style="mask-type:luminance" maskUnits="userSpaceOnUse" x="92" y="52" width="11" height="12">
<path d="M102.532 56.1973L99.0007 63.1921L92.0059 59.6608L95.5371 52.666L102.532 56.1973Z" fill="white"/>
</mask>
<g mask="url(#mask18_1631_3022)">
<mask id="mask19_1631_3022" style="mask-type:luminance" maskUnits="userSpaceOnUse" x="93" y="54" width="9" height="8">
<path d="M100.767 59.6977C101.741 57.7654 100.965 55.4112 99.0375 54.4321C97.1052 53.4581 94.7459 54.2341 93.7719 56.1664C92.7979 58.0987 93.574 60.4529 95.5063 61.4268C97.4334 62.4008 99.7927 61.63 100.767 59.6977Z" fill="white"/>
</mask>
<g mask="url(#mask19_1631_3022)">
<path d="M102.532 56.1973L99.0007 63.1921L92.0059 59.6608L95.5371 52.666L102.532 56.1973Z" fill="black"/>
</g>
</g>
</g>
<mask id="mask20_1631_3022" style="mask-type:luminance" maskUnits="userSpaceOnUse" x="114" y="54" width="9" height="9">
<path d="M114.209 54.7812H122.042V62.6198H114.209V54.7812Z" fill="white"/>
</mask>
<g mask="url(#mask20_1631_3022)">
<mask id="mask21_1631_3022" style="mask-type:luminance" maskUnits="userSpaceOnUse" x="114" y="54" width="9" height="9">
<path d="M118.126 54.7812C115.959 54.7812 114.209 56.5365 114.209 58.6979C114.209 60.8646 115.959 62.6198 118.126 62.6198C120.287 62.6198 122.042 60.8646 122.042 58.6979C122.042 56.5365 120.287 54.7812 118.126 54.7812Z" fill="white"/>
</mask>
<g mask="url(#mask21_1631_3022)">
<path d="M114.209 54.7812H122.042V62.6198H114.209V54.7812Z" fill="black"/>
</g>
</g>
<path d="M99.1934 58.5938L118.782 59.0104" stroke="black" stroke-width="1.22987"/>
<mask id="mask22_1631_3022" style="mask-type:luminance" maskUnits="userSpaceOnUse" x="81" y="70" width="13" height="13">
<path d="M89.3301 70L93.9967 78.0829L85.9138 82.7496L81.2472 74.6667L89.3301 70Z" fill="white"/>
</mask>
<g mask="url(#mask22_1631_3022)">
<mask id="mask23_1631_3022" style="mask-type:luminance" maskUnits="userSpaceOnUse" x="83" y="72" width="9" height="9">
<path d="M91.326 79.8541L83.5027 80.2933L83.0634 72.4701L90.8867 72.0308L91.326 79.8541Z" fill="white"/>
</mask>
<g mask="url(#mask23_1631_3022)">
<mask id="mask24_1631_3022" style="mask-type:luminance" maskUnits="userSpaceOnUse" x="83" y="72" width="9" height="9">
<path d="M87.4123 80.0752C89.5727 79.9525 91.2234 78.1034 91.1079 75.9449C90.9852 73.7845 89.1334 72.1293 86.973 72.2519C84.8126 72.3746 83.1619 74.2238 83.2846 76.3841C83.4046 78.54 85.2519 80.1979 87.4123 80.0752Z" fill="white"/>
</mask>
<g mask="url(#mask24_1631_3022)">
<path d="M91.326 79.8541L83.5027 80.2933L83.0634 72.4701L90.8867 72.0308L91.326 79.8541Z" fill="black"/>
</g>
</g>
</g>
<mask id="mask25_1631_3022" style="mask-type:luminance" maskUnits="userSpaceOnUse" x="91" y="89" width="12" height="11">
<path d="M98.3926 89.2578L102.309 96.0417L95.5209 99.9609L91.6042 93.1771L98.3926 89.2578Z" fill="white"/>
</mask>
<g mask="url(#mask25_1631_3022)">
<mask id="mask26_1631_3022" style="mask-type:luminance" maskUnits="userSpaceOnUse" x="93" y="90" width="8" height="9">
<path d="M100.351 92.6497C99.2676 90.7734 96.8725 90.1354 95.0006 91.2161C93.1243 92.2995 92.4792 94.6926 93.5625 96.569C94.6433 98.4409 97.0409 99.0833 98.9173 98C100.789 96.9193 101.432 94.5216 100.351 92.6497Z" fill="white"/>
</mask>
<g mask="url(#mask26_1631_3022)">
<path d="M98.3926 89.2578L102.309 96.0417L95.5209 99.9609L91.6042 93.1771L98.3926 89.2578Z" fill="black"/>
</g>
</g>
<path d="M87.584 78.1602L97.0174 95.3327" stroke="black" stroke-width="1.22987"/>
<mask id="mask27_1631_3022" style="mask-type:luminance" maskUnits="userSpaceOnUse" x="50" y="88" width="13" height="13">
<path d="M58.3301 88L62.9967 96.0829L54.9138 100.75L50.2472 92.6667L58.3301 88Z" fill="white"/>
</mask>
<g mask="url(#mask27_1631_3022)">
<mask id="mask28_1631_3022" style="mask-type:luminance" maskUnits="userSpaceOnUse" x="52" y="90" width="9" height="9">
<path d="M60.326 97.8541L52.5027 98.2933L52.0634 90.4701L59.8867 90.0308L60.326 97.8541Z" fill="white"/>
</mask>
<g mask="url(#mask28_1631_3022)">
<mask id="mask29_1631_3022" style="mask-type:luminance" maskUnits="userSpaceOnUse" x="52" y="90" width="9" height="9">
<path d="M56.4123 98.0752C58.5727 97.9525 60.2234 96.1034 60.1079 93.9449C59.9852 91.7845 58.1334 90.1293 55.973 90.2519C53.8126 90.3746 52.1619 92.2238 52.2846 94.3841C52.4046 96.54 54.2519 98.1979 56.4123 98.0752Z" fill="white"/>
</mask>
<g mask="url(#mask29_1631_3022)">
<path d="M60.326 97.8541L52.5027 98.2933L52.0634 90.4701L59.8867 90.0308L60.326 97.8541Z" fill="black"/>
</g>
</g>
</g>
<mask id="mask30_1631_3022" style="mask-type:luminance" maskUnits="userSpaceOnUse" x="60" y="107" width="12" height="11">
<path d="M67.3926 107.258L71.3092 114.042L64.5209 117.961L60.6042 111.177L67.3926 107.258Z" fill="white"/>
</mask>
<g mask="url(#mask30_1631_3022)">
<mask id="mask31_1631_3022" style="mask-type:luminance" maskUnits="userSpaceOnUse" x="62" y="108" width="8" height="9">
<path d="M69.3509 110.65C68.2676 108.773 65.8725 108.135 64.0006 109.216C62.1243 110.299 61.4792 112.693 62.5625 114.569C63.6433 116.441 66.0409 117.083 67.9173 116C69.7892 114.919 70.4316 112.522 69.3509 110.65Z" fill="white"/>
</mask>
<g mask="url(#mask31_1631_3022)">
<path d="M67.3926 107.258L71.3092 114.042L64.5209 117.961L60.6042 111.177L67.3926 107.258Z" fill="black"/>
</g>
</g>
<path d="M56.584 96.1602L66.0174 113.333" stroke="black" stroke-width="1.22987"/>
<mask id="mask32_1631_3022" style="mask-type:luminance" maskUnits="userSpaceOnUse" x="29" y="89" width="13" height="13">
<path d="M41.8516 93.8105L37.1849 101.893L29.102 97.2268L33.7687 89.1439L41.8516 93.8105Z" fill="white"/>
</mask>
<g mask="url(#mask32_1631_3022)">
<mask id="mask33_1631_3022" style="mask-type:luminance" maskUnits="userSpaceOnUse" x="30" y="89" width="11" height="12">
<path d="M34.3155 100.465L30.0235 93.9099L36.5791 89.6178L40.8711 96.1734L34.3155 100.465Z" fill="white"/>
</mask>
<g mask="url(#mask33_1631_3022)">
<mask id="mask34_1631_3022" style="mask-type:luminance" maskUnits="userSpaceOnUse" x="31" y="91" width="9" height="8">
<path d="M32.1671 97.1861C33.3535 98.9957 35.7803 99.5008 37.5918 98.3214C39.4014 97.135 39.9091 94.7037 38.7226 92.8941C37.5362 91.0845 35.1094 90.5795 33.2998 91.7659C31.4928 92.9478 30.9806 95.3765 32.1671 97.1861Z" fill="white"/>
</mask>
<g mask="url(#mask34_1631_3022)">
<path d="M34.3155 100.465L30.0235 93.9099L36.5791 89.6178L40.8711 96.1734L34.3155 100.465Z" fill="black"/>
</g>
</g>
</g>
<mask id="mask35_1631_3022" style="mask-type:luminance" maskUnits="userSpaceOnUse" x="19" y="107" width="11" height="12">
<path d="M29.7051 111.287L25.7884 118.071L19 114.152L22.9167 107.368L29.7051 111.287Z" fill="white"/>
</mask>
<g mask="url(#mask35_1631_3022)">
<mask id="mask36_1631_3022" style="mask-type:luminance" maskUnits="userSpaceOnUse" x="20" y="108" width="9" height="9">
<path d="M27.7467 114.679C28.8301 112.803 28.185 110.41 26.3131 109.329C24.4368 108.245 22.0417 108.883 20.9584 110.76C19.8776 112.632 20.5201 115.029 22.3965 116.113C24.2684 117.193 26.666 116.551 27.7467 114.679Z" fill="white"/>
</mask>
<g mask="url(#mask36_1631_3022)">
<path d="M29.7051 111.287L25.7884 118.071L19 114.152L22.9167 107.368L29.7051 111.287Z" fill="black"/>
</g>
</g>
<path d="M33.9121 96.377L23.757 113.133" stroke="black" stroke-width="1.22987"/>
<mask id="mask37_1631_3022" style="mask-type:luminance" maskUnits="userSpaceOnUse" x="0" y="75" width="12" height="12">
<path d="M0 77.5176L9.01531 75.1019L11.431 84.1172L2.41564 86.5329L0 77.5176Z" fill="white"/>
</mask>
<g mask="url(#mask37_1631_3022)">
<mask id="mask38_1631_3022" style="mask-type:luminance" maskUnits="userSpaceOnUse" x="0" y="76" width="11" height="10">
<path d="M10.0345 78.1397L8.43392 85.8101L0.76351 84.2096L2.36405 76.5392L10.0345 78.1397Z" fill="white"/>
</mask>
<g mask="url(#mask38_1631_3022)">
<mask id="mask39_1631_3022" style="mask-type:luminance" maskUnits="userSpaceOnUse" x="1" y="77" width="9" height="9">
<path d="M9.23566 81.9773C9.67632 79.8588 8.31742 77.7857 6.20257 77.3387C4.08404 76.898 2.00592 78.2583 1.56526 80.3768C1.1246 82.4953 2.4835 84.5684 4.60203 85.0091C6.71553 85.4511 8.795 84.0959 9.23566 81.9773Z" fill="white"/>
</mask>
<g mask="url(#mask39_1631_3022)">
<path d="M10.0345 78.1397L8.43392 85.8101L0.76351 84.2096L2.36405 76.5392L10.0345 78.1397Z" fill="black"/>
</g>
</g>
</g>
<mask id="mask40_1631_3022" style="mask-type:luminance" maskUnits="userSpaceOnUse" x="20" y="71" width="11" height="11">
<path d="M20.9473 73.748L28.5137 71.7206L30.5424 79.2921L22.976 81.3195L20.9473 73.748Z" fill="white"/>
</mask>
<g mask="url(#mask40_1631_3022)">
<mask id="mask41_1631_3022" style="mask-type:luminance" maskUnits="userSpaceOnUse" x="21" y="72" width="9" height="9">
<path d="M24.7305 72.7343C22.6376 73.2951 21.4015 75.4434 21.961 77.5313C22.5217 79.6241 24.6664 80.8666 26.7592 80.3058C28.847 79.7464 30.0882 77.5967 29.5274 75.5038C28.968 73.416 26.8183 72.1749 24.7305 72.7343Z" fill="white"/>
</mask>
<g mask="url(#mask41_1631_3022)">
<path d="M20.9473 73.748L28.5137 71.7206L30.5424 79.2921L22.976 81.3195L20.9473 73.748Z" fill="black"/>
</g>
</g>
<path d="M7.42969 81.3164L26.4586 76.649" stroke="black" stroke-width="1.22987"/>
<mask id="mask42_1631_3022" style="mask-type:luminance" maskUnits="userSpaceOnUse" x="15" y="2" width="14" height="14">
<path d="M21.8027 2L28.4024 8.59966L21.8027 15.1993L15.2031 8.59966L21.8027 2Z" fill="white"/>
</mask>
<g mask="url(#mask42_1631_3022)">
<mask id="mask43_1631_3022" style="mask-type:luminance" maskUnits="userSpaceOnUse" x="16" y="3" width="11" height="11">
<path d="M26.282 11.0006L18.839 13.4496L16.3899 6.00661L23.8329 3.55752L26.282 11.0006Z" fill="white"/>
</mask>
<g mask="url(#mask43_1631_3022)">
<mask id="mask44_1631_3022" style="mask-type:luminance" maskUnits="userSpaceOnUse" x="17" y="4" width="9" height="9">
<path d="M22.5586 12.2268C24.6137 11.5491 25.7296 9.33573 25.0593 7.2807C24.3817 5.22567 22.1646 4.10608 20.1095 4.78373C18.0545 5.46137 16.9386 7.67476 17.6163 9.72979C18.2902 11.7811 20.5036 12.9044 22.5586 12.2268Z" fill="white"/>
</mask>
<g mask="url(#mask44_1631_3022)">
<path d="M26.282 11.0006L18.839 13.4496L16.3899 6.00661L23.8329 3.55752L26.282 11.0006Z" fill="black"/>
</g>
</g>
</g>
<mask id="mask45_1631_3022" style="mask-type:luminance" maskUnits="userSpaceOnUse" x="29" y="18" width="13" height="12">
<path d="M35.5391 18.2559L41.0781 23.7949L35.5354 29.3375L29.9964 23.7985L35.5391 18.2559Z" fill="white"/>
</mask>
<g mask="url(#mask45_1631_3022)">
<mask id="mask46_1631_3022" style="mask-type:luminance" maskUnits="userSpaceOnUse" x="31" y="19" width="9" height="9">
<path d="M38.3086 21.0254C36.7765 19.4933 34.2979 19.497 32.7696 21.0254C31.2375 22.5574 31.2338 25.036 32.7659 26.568C34.2943 28.0964 36.7765 28.0964 38.3086 26.5644C39.8369 25.036 39.8369 22.5537 38.3086 21.0254Z" fill="white"/>
</mask>
<g mask="url(#mask46_1631_3022)">
<path d="M35.5391 18.2559L41.0781 23.7949L35.5354 29.3375L29.9964 23.7985L35.5391 18.2559Z" fill="black"/>
</g>
</g>
<path d="M22.2266 10.334L35.7831 24.4798" stroke="black" stroke-width="1.22987"/>
<mask id="mask47_1631_3022" style="mask-type:luminance" maskUnits="userSpaceOnUse" x="61" y="0" width="13" height="13">
<path d="M73.8516 4.81055L69.1849 12.8935L61.102 8.22678L65.7687 0.14388L73.8516 4.81055Z" fill="white"/>
</mask>
<g mask="url(#mask47_1631_3022)">
<mask id="mask48_1631_3022" style="mask-type:luminance" maskUnits="userSpaceOnUse" x="62" y="0" width="11" height="12">
<path d="M66.3155 11.4654L62.0235 4.90988L68.5791 0.617838L72.8711 7.17339L66.3155 11.4654Z" fill="white"/>
</mask>
<g mask="url(#mask48_1631_3022)">
<mask id="mask49_1631_3022" style="mask-type:luminance" maskUnits="userSpaceOnUse" x="63" y="2" width="9" height="8">
<path d="M64.1671 8.18613C65.3535 9.99575 67.7803 10.5008 69.5918 9.32144C71.4014 8.13501 71.9091 5.70371 70.7226 3.89409C69.5362 2.08447 67.1094 1.57946 65.2998 2.76589C63.4928 3.94782 62.9806 6.37651 64.1671 8.18613Z" fill="white"/>
</mask>
<g mask="url(#mask49_1631_3022)">
<path d="M66.3155 11.4654L62.0235 4.90988L68.5791 0.617838L72.8711 7.17339L66.3155 11.4654Z" fill="black"/>
</g>
</g>
</g>
<mask id="mask50_1631_3022" style="mask-type:luminance" maskUnits="userSpaceOnUse" x="51" y="18" width="11" height="12">
<path d="M61.7051 22.2871L57.7884 29.071L51 25.1517L54.9167 18.3678L61.7051 22.2871Z" fill="white"/>
</mask>
<g mask="url(#mask50_1631_3022)">
<mask id="mask51_1631_3022" style="mask-type:luminance" maskUnits="userSpaceOnUse" x="52" y="19" width="9" height="9">
<path d="M59.7467 25.679C60.8301 23.8027 60.185 21.4095 58.3131 20.3288C56.4368 19.2454 54.0417 19.8834 52.9584 21.7598C51.8776 23.6316 52.5201 26.0293 54.3965 27.1126C56.2684 28.1934 58.666 27.5509 59.7467 25.679Z" fill="white"/>
</mask>
<g mask="url(#mask51_1631_3022)">
<path d="M61.7051 22.2871L57.7884 29.071L51 25.1517L54.9167 18.3678L61.7051 22.2871Z" fill="black"/>
</g>
</g>
<path d="M65.9121 7.37695L55.757 24.1328" stroke="black" stroke-width="1.22987"/>
<mask id="mask52_1631_3022" style="mask-type:luminance" maskUnits="userSpaceOnUse" x="91" y="16" width="13" height="13">
<path d="M103.852 20.8105L99.1849 28.8935L91.102 24.2268L95.7687 16.1439L103.852 20.8105Z" fill="white"/>
</mask>
<g mask="url(#mask52_1631_3022)">
<mask id="mask53_1631_3022" style="mask-type:luminance" maskUnits="userSpaceOnUse" x="92" y="16" width="11" height="12">
<path d="M96.3155 27.4654L92.0235 20.9099L98.5791 16.6178L102.871 23.1734L96.3155 27.4654Z" fill="white"/>
</mask>
<g mask="url(#mask53_1631_3022)">
<mask id="mask54_1631_3022" style="mask-type:luminance" maskUnits="userSpaceOnUse" x="93" y="18" width="9" height="8">
<path d="M94.1671 24.1861C95.3535 25.9957 97.7803 26.5008 99.5918 25.3214C101.401 24.135 101.909 21.7037 100.723 19.8941C99.5362 18.0845 97.1094 17.5795 95.2998 18.7659C93.4928 19.9478 92.9806 22.3765 94.1671 24.1861Z" fill="white"/>
</mask>
<g mask="url(#mask54_1631_3022)">
<path d="M96.3155 27.4654L92.0235 20.9099L98.5791 16.6178L102.871 23.1734L96.3155 27.4654Z" fill="black"/>
</g>
</g>
</g>
<mask id="mask55_1631_3022" style="mask-type:luminance" maskUnits="userSpaceOnUse" x="81" y="34" width="11" height="12">
<path d="M91.7051 38.2871L87.7884 45.071L81 41.1517L84.9167 34.3678L91.7051 38.2871Z" fill="white"/>
</mask>
<g mask="url(#mask55_1631_3022)">
<mask id="mask56_1631_3022" style="mask-type:luminance" maskUnits="userSpaceOnUse" x="82" y="35" width="9" height="9">
<path d="M89.7467 41.679C90.8301 39.8027 90.185 37.4095 88.3131 36.3288C86.4368 35.2454 84.0417 35.8834 82.9584 37.7598C81.8776 39.6316 82.5201 42.0293 84.3965 43.1126C86.2684 44.1934 88.666 43.5509 89.7467 41.679Z" fill="white"/>
</mask>
<g mask="url(#mask56_1631_3022)">
<path d="M91.7051 38.2871L87.7884 45.071L81 41.1517L84.9167 34.3678L91.7051 38.2871Z" fill="black"/>
</g>
</g>
<path d="M95.9121 23.377L85.757 40.1328" stroke="black" stroke-width="1.22987"/>
<path d="M138.043 76.2708V8.5H159.022C161.423 8.5 163.486 9.39583 165.21 11.1875C166.928 12.9688 167.793 15.1562 167.793 17.75V32.3958C167.793 34.5365 167.402 36.3542 166.626 37.8542C166.095 38.9531 165.283 39.8906 164.189 40.6667H167.793V67C167.793 69.6146 166.928 71.8125 165.21 73.6042C163.486 75.3854 161.423 76.2708 159.022 76.2708H138.043ZM157.064 32.3958V18.7292H148.772V36.7708L157.064 32.3958ZM157.064 44.4792L148.772 48.7708V66.0208H157.064V44.4792Z" fill="#EF7709"/>
<path d="M175.602 31.4173C175.602 28.7507 176.461 26.5423 178.185 24.7923C179.904 23.0319 181.977 22.1465 184.393 22.1465H196.081C198.482 22.1465 200.544 23.0423 202.268 24.834C204.003 26.6257 204.872 28.8236 204.872 31.4173V44.584L186.331 53.834V66.0215H194.143V56.2715L204.872 50.9173V67.0007C204.872 69.5423 204.003 71.7246 202.268 73.5423C200.544 75.3652 198.482 76.2715 196.081 76.2715H184.393C181.977 76.2715 179.904 75.3861 178.185 73.6048C176.461 71.8132 175.602 69.6152 175.602 67.0007V31.4173ZM194.143 40.1882V32.3965H186.331V44.084L194.143 40.1882Z" fill="black"/>
<path d="M212.666 31.4173C212.666 28.7507 213.525 26.5423 215.249 24.7923C216.968 23.0319 219.041 22.1465 221.458 22.1465H233.145C235.546 22.1465 237.609 23.0423 239.333 24.834C241.067 26.6257 241.937 28.8236 241.937 31.4173V44.584L223.395 53.834V66.0215H231.208V56.2715L241.937 50.9173V67.0007C241.937 69.5423 241.067 71.7246 239.333 73.5423C237.609 75.3652 235.546 76.2715 233.145 76.2715H221.458C219.041 76.2715 216.968 75.3861 215.249 73.6048C213.525 71.8132 212.666 69.6152 212.666 67.0007V31.4173ZM231.208 40.1882V32.3965H223.395V44.084L231.208 40.1882Z" fill="#EF7709"/>
<path d="M260.462 76.2708H249.732V8.5H260.462V13.4583C260.847 12.625 261.368 11.849 262.024 11.125C263.774 9.375 265.857 8.5 268.274 8.5H270.712C273.113 8.5 275.175 9.39583 276.899 11.1875C278.618 12.9688 279.482 15.1562 279.482 17.75V76.2708H268.753V18.7292H260.462V76.2708Z" fill="black"/>
<path d="M287.279 31.4173C287.279 28.7507 288.139 26.5423 289.863 24.7923C291.581 23.0319 293.654 22.1465 296.071 22.1465H307.758C310.16 22.1465 312.222 23.0423 313.946 24.834C315.68 26.6257 316.55 28.8236 316.55 31.4173V44.584L298.008 53.834V66.0215H305.821V56.2715L316.55 50.9173V67.0007C316.55 69.5423 315.68 71.7246 313.946 73.5423C312.222 75.3652 310.16 76.2715 307.758 76.2715H296.071C293.654 76.2715 291.581 75.3861 289.863 73.6048C288.139 71.8132 287.279 69.6152 287.279 67.0007V31.4173ZM305.821 40.1882V32.3965H298.008V44.084L305.821 40.1882Z" fill="black"/>
<path d="M342.88 22.1465H353.609V76.2715H342.88V71.2923C342.489 72.1413 341.968 72.8913 341.317 73.5423C339.551 75.3652 337.468 76.2715 335.067 76.2715H333.13C330.713 76.2715 328.64 75.3861 326.921 73.6048C325.197 71.8132 324.338 69.6152 324.338 67.0007V22.1465H335.067V66.0215H342.88V22.1465Z" fill="black"/>
<path d="M372.128 76.2715H361.398V22.1465H372.128V27.1257C372.513 26.2819 373.034 25.4954 373.69 24.7715C375.44 23.0215 377.523 22.1465 379.94 22.1465H381.878C384.279 22.1465 386.341 23.0423 388.065 24.834C389.799 26.6257 390.669 28.8236 390.669 31.4173V38.7298L379.94 44.084V32.3965H372.128V76.2715Z" fill="black"/>
<path d="M404.811 76.2715C402.395 76.2715 400.322 75.3861 398.603 73.6048C396.879 71.8132 396.02 69.6152 396.02 67.0007V48.959L414.561 39.709V32.3965H406.749V37.2715L396.02 42.6257V31.4173C396.02 28.8757 396.879 26.6986 398.603 24.8757C400.322 23.0579 402.395 22.1465 404.811 22.1465H416.499C418.9 22.1465 420.962 23.0423 422.686 24.834C424.421 26.6257 425.29 28.8236 425.29 31.4173V76.2715H414.561V71.2923C414.171 72.1413 413.65 72.8913 412.999 73.5423C411.233 75.3652 409.15 76.2715 406.749 76.2715H404.811ZM406.749 53.3548V66.0215H414.561V49.459L406.749 53.3548Z" fill="black"/>
<path d="M433.08 76.2708V13.375L443.809 8V76.2708H433.08Z" fill="black"/>
<path d="M154.564 103.628C153.59 104.587 152.522 105.305 151.355 105.774C150.189 106.232 148.98 106.462 147.73 106.462C146.397 106.462 145.137 106.212 143.96 105.712C142.777 105.201 141.751 104.503 140.876 103.628C140.001 102.753 139.303 101.727 138.793 100.545C138.293 99.3678 138.043 98.1074 138.043 96.7741C138.043 95.4564 138.293 94.2064 138.793 93.0241C139.303 91.847 140.001 90.8158 140.876 89.9408C141.751 89.0553 142.777 88.3574 143.96 87.8574C145.137 87.3574 146.397 87.1074 147.73 87.1074C148.98 87.1074 150.189 87.347 151.355 87.8158C152.522 88.2897 153.59 88.998 154.564 89.9408C154.949 90.3314 155.147 90.7897 155.147 91.3158C155.147 91.8314 154.949 92.2845 154.564 92.6699C154.173 93.0449 153.72 93.2324 153.21 93.2324C152.652 93.2324 152.194 93.0449 151.835 92.6699C151.277 92.0866 150.637 91.6647 149.918 91.3991C149.21 91.123 148.48 90.9824 147.73 90.9824C146.923 90.9824 146.168 91.1387 145.46 91.4408C144.751 91.7324 144.132 92.1439 143.605 92.6699C143.09 93.2012 142.678 93.8158 142.376 94.5241C142.069 95.222 141.918 95.972 141.918 96.7741C141.918 97.5814 142.069 98.3366 142.376 99.0449C142.678 99.7533 143.09 100.373 143.605 100.899C144.132 101.43 144.751 101.847 145.46 102.149C146.168 102.441 146.923 102.587 147.73 102.587C148.48 102.587 149.199 102.456 149.897 102.191C150.605 101.915 151.251 101.482 151.835 100.899C152.22 100.514 152.678 100.316 153.21 100.316C153.72 100.316 154.173 100.514 154.564 100.899C154.949 101.274 155.147 101.727 155.147 102.253C155.147 102.785 154.949 103.243 154.564 103.628Z" fill="black"/>
<path d="M155.949 98.7116C155.949 97.6439 156.147 96.6439 156.553 95.7116C156.954 94.7689 157.512 93.9512 158.22 93.2533C158.928 92.5449 159.746 91.9928 160.678 91.5866C161.621 91.1855 162.626 90.9824 163.699 90.9824C164.767 90.9824 165.767 91.1855 166.699 91.5866C167.642 91.9928 168.47 92.5449 169.178 93.2533C169.887 93.9512 170.439 94.7689 170.845 95.7116C171.246 96.6439 171.449 97.6439 171.449 98.7116C171.449 99.7845 171.246 100.79 170.845 101.732C170.439 102.665 169.887 103.482 169.178 104.191C168.47 104.899 167.642 105.456 166.699 105.857C165.767 106.264 164.767 106.462 163.699 106.462C162.626 106.462 161.621 106.264 160.678 105.857C159.746 105.456 158.928 104.899 158.22 104.191C157.512 103.482 156.954 102.665 156.553 101.732C156.147 100.79 155.949 99.7845 155.949 98.7116ZM159.824 98.7116C159.824 99.2533 159.918 99.7637 160.116 100.232C160.324 100.691 160.6 101.102 160.949 101.462C161.309 101.811 161.72 102.087 162.178 102.295C162.647 102.493 163.158 102.587 163.699 102.587C164.241 102.587 164.741 102.493 165.199 102.295C165.668 102.087 166.079 101.811 166.428 101.462C166.788 101.102 167.064 100.691 167.262 100.232C167.47 99.7637 167.574 99.2533 167.574 98.7116C167.574 98.1699 167.47 97.6699 167.262 97.2116C167.064 96.7428 166.788 96.3314 166.428 95.9824C166.079 95.623 165.668 95.347 165.199 95.1491C164.741 94.9408 164.241 94.8366 163.699 94.8366C163.158 94.8366 162.647 94.9408 162.178 95.1491C161.72 95.347 161.309 95.623 160.949 95.9824C160.6 96.3314 160.324 96.7428 160.116 97.2116C159.918 97.6699 159.824 98.1699 159.824 98.7116Z" fill="black"/>
<path d="M182.82 97.7533C182.82 96.9512 182.534 96.2637 181.966 95.6908C181.393 95.123 180.706 94.8366 179.904 94.8366C179.096 94.8366 178.409 95.123 177.841 95.6908C177.284 96.2637 177.008 96.9512 177.008 97.7533V104.524C177.008 105.055 176.81 105.514 176.424 105.899C176.049 106.274 175.596 106.462 175.07 106.462C174.539 106.462 174.081 106.274 173.695 105.899C173.32 105.514 173.133 105.055 173.133 104.524V97.7533C173.133 96.6595 173.362 95.6491 173.82 94.7324C173.539 94.5241 173.31 94.2689 173.133 93.9616C172.966 93.6439 172.883 93.2949 172.883 92.9199C172.883 92.3105 173.091 91.7949 173.508 91.3783C173.935 90.9512 174.456 90.7324 175.07 90.7324C175.456 90.7324 175.805 90.8262 176.112 91.0033C176.43 91.1855 176.685 91.4147 176.883 91.6908C177.352 91.472 177.841 91.2949 178.341 91.1699C178.841 91.0449 179.362 90.9824 179.904 90.9824C180.872 90.9824 181.768 91.1647 182.591 91.5241C183.409 91.8887 184.133 92.3783 184.758 93.0033C185.352 92.3783 186.06 91.8887 186.883 91.5241C187.716 91.1647 188.617 90.9824 189.591 90.9824C190.518 90.9824 191.393 91.1595 192.216 91.5033C193.049 91.8522 193.768 92.3366 194.383 92.9616C194.992 93.5762 195.471 94.2949 195.82 95.1283C196.18 95.9512 196.362 96.8262 196.362 97.7533V104.524C196.362 105.055 196.164 105.514 195.779 105.899C195.404 106.274 194.951 106.462 194.424 106.462C193.909 106.462 193.456 106.274 193.07 105.899C192.68 105.514 192.487 105.055 192.487 104.524V97.7533C192.487 96.9512 192.201 96.2637 191.633 95.6908C191.076 95.123 190.393 94.8366 189.591 94.8366C188.784 94.8366 188.096 95.123 187.529 95.6908C186.971 96.2637 186.695 96.9512 186.695 97.7533V104.524C186.695 105.055 186.497 105.514 186.112 105.899C185.721 106.274 185.268 106.462 184.758 106.462C184.227 106.462 183.768 106.274 183.383 105.899C183.008 105.514 182.82 105.055 182.82 104.524V97.7533Z" fill="black"/>
<path d="M198.047 92.9199C198.047 92.3105 198.255 91.7949 198.672 91.3783C199.099 90.9512 199.62 90.7324 200.234 90.7324C200.677 90.7324 201.073 90.8522 201.422 91.0866C201.781 91.3105 202.036 91.6178 202.193 92.0033C202.776 91.6855 203.385 91.4355 204.026 91.2533C204.661 91.0762 205.339 90.9824 206.047 90.9824C207.115 90.9824 208.115 91.1855 209.047 91.5866C209.99 91.9928 210.807 92.5449 211.505 93.2533C212.214 93.9512 212.766 94.7689 213.172 95.7116C213.589 96.6439 213.797 97.6439 213.797 98.7116C213.797 99.7845 213.589 100.79 213.172 101.732C212.766 102.665 212.214 103.482 211.505 104.191C210.807 104.899 209.99 105.456 209.047 105.857C208.115 106.264 207.115 106.462 206.047 106.462C204.615 106.462 203.323 106.123 202.172 105.441V110.337C202.172 110.863 201.974 111.316 201.589 111.691C201.214 112.076 200.76 112.274 200.234 112.274C199.703 112.274 199.245 112.076 198.859 111.691C198.484 111.316 198.297 110.863 198.297 110.337V98.7116C198.297 97.3262 198.635 96.0553 199.318 94.8991C198.943 94.722 198.635 94.4564 198.401 94.1074C198.161 93.748 198.047 93.3522 198.047 92.9199ZM202.172 98.7116C202.172 99.2533 202.266 99.7637 202.464 100.232C202.672 100.691 202.948 101.102 203.297 101.462C203.656 101.811 204.068 102.087 204.526 102.295C204.995 102.493 205.505 102.587 206.047 102.587C206.589 102.587 207.089 102.493 207.547 102.295C208.016 102.087 208.427 101.811 208.776 101.462C209.135 101.102 209.411 100.691 209.609 100.232C209.818 99.7637 209.922 99.2533 209.922 98.7116C209.922 98.1699 209.818 97.6699 209.609 97.2116C209.411 96.7428 209.135 96.3314 208.776 95.9824C208.427 95.623 208.016 95.347 207.547 95.1491C207.089 94.9408 206.589 94.8366 206.047 94.8366C205.505 94.8366 204.995 94.9408 204.526 95.1491C204.068 95.347 203.656 95.623 203.297 95.9824C202.948 96.3314 202.672 96.7428 202.464 97.2116C202.266 97.6699 202.172 98.1699 202.172 98.7116Z" fill="black"/>
<path d="M219.352 104.524C219.352 105.055 219.154 105.514 218.768 105.899C218.393 106.274 217.94 106.462 217.414 106.462C216.883 106.462 216.424 106.274 216.039 105.899C215.664 105.514 215.477 105.055 215.477 104.524V87.1074C215.477 86.5814 215.664 86.1283 216.039 85.7533C216.424 85.3678 216.883 85.1699 217.414 85.1699C217.94 85.1699 218.393 85.3678 218.768 85.7533C219.154 86.1283 219.352 86.5814 219.352 87.1074V104.524Z" fill="black"/>
<path d="M228.789 106.462C227.716 106.462 226.711 106.264 225.768 105.857C224.836 105.456 224.018 104.899 223.31 104.191C222.602 103.482 222.044 102.665 221.643 101.732C221.237 100.79 221.039 99.7845 221.039 98.7116C221.039 97.6439 221.237 96.6439 221.643 95.7116C222.044 94.7689 222.602 93.9512 223.31 93.2533C224.018 92.5449 224.836 91.9928 225.768 91.5866C226.711 91.1855 227.716 90.9824 228.789 90.9824C229.857 90.9824 230.857 91.1855 231.789 91.5866C232.732 91.9928 233.56 92.5449 234.268 93.2533C234.977 93.9512 235.529 94.7689 235.935 95.7116C236.336 96.6439 236.539 97.6439 236.539 98.7116C236.539 99.2428 236.341 99.7012 235.956 100.087C235.565 100.462 235.112 100.649 234.602 100.649H225.435C225.768 101.232 226.227 101.706 226.81 102.066C227.404 102.415 228.065 102.587 228.789 102.587H230.727C231.253 102.587 231.706 102.785 232.081 103.17C232.466 103.545 232.664 103.998 232.664 104.524C232.664 105.055 232.466 105.514 232.081 105.899C231.706 106.274 231.253 106.462 230.727 106.462H228.789ZM228.789 94.8366C228.065 94.8366 227.404 95.0189 226.81 95.3783C226.227 95.7272 225.768 96.1908 225.435 96.7741H232.143C231.794 96.1908 231.32 95.7272 230.727 95.3783C230.143 95.0189 229.497 94.8366 228.789 94.8366Z" fill="black"/>
<path d="M238.305 94.2741C237.93 93.8887 237.742 93.4355 237.742 92.9199C237.742 92.3939 237.93 91.9408 238.305 91.5658C238.69 91.1803 239.148 90.9824 239.68 90.9824C240.206 90.9824 240.659 91.1699 241.034 91.5449L245.492 96.0033L249.93 91.5449C250.315 91.1699 250.768 90.9824 251.284 90.9824C251.81 90.9824 252.263 91.1803 252.638 91.5658C253.023 91.9408 253.221 92.3939 253.221 92.9199C253.221 93.4355 253.034 93.8887 252.659 94.2741L248.201 98.7116L252.659 103.17C253.034 103.587 253.221 104.04 253.221 104.524C253.221 105.055 253.023 105.514 252.638 105.899C252.263 106.274 251.81 106.462 251.284 106.462C250.768 106.462 250.315 106.269 249.93 105.878L245.492 101.441L241.034 105.878C240.659 106.269 240.206 106.462 239.68 106.462C239.148 106.462 238.69 106.274 238.305 105.899C237.93 105.514 237.742 105.055 237.742 104.524C237.742 103.998 237.93 103.545 238.305 103.17L242.763 98.7116L238.305 94.2741Z" fill="black"/>
<path d="M259.033 104.523C259.033 105.055 258.835 105.513 258.45 105.898C258.075 106.273 257.622 106.461 257.096 106.461C256.564 106.461 256.106 106.273 255.721 105.898C255.346 105.513 255.158 105.055 255.158 104.523V92.9193C255.158 92.3932 255.346 91.9401 255.721 91.5651C256.106 91.1797 256.564 90.9818 257.096 90.9818C257.622 90.9818 258.075 91.1797 258.45 91.5651C258.835 91.9401 259.033 92.3932 259.033 92.9193V104.523ZM254.908 87.8359C254.908 87.2266 255.117 86.7109 255.533 86.2943C255.96 85.8672 256.481 85.6484 257.096 85.6484C257.705 85.6484 258.221 85.8672 258.637 86.2943C259.064 86.7109 259.283 87.2266 259.283 87.8359C259.283 88.4349 259.064 88.9505 258.637 89.3776C258.221 89.7943 257.705 90.0026 257.096 90.0026C256.481 90.0026 255.96 89.7943 255.533 89.3776C255.117 88.9505 254.908 88.4349 254.908 87.8359Z" fill="black"/>
<path d="M263.867 90.9824V89.0449C263.867 88.5189 264.055 88.0658 264.43 87.6908C264.815 87.3053 265.273 87.1074 265.805 87.1074C266.331 87.1074 266.784 87.3053 267.159 87.6908C267.544 88.0658 267.742 88.5189 267.742 89.0449V90.9824H270.638C271.164 90.9824 271.617 91.1803 271.992 91.5658C272.378 91.9408 272.576 92.3939 272.576 92.9199C272.576 93.4355 272.378 93.8887 271.992 94.2741C271.617 94.6491 271.164 94.8366 270.638 94.8366H267.742V100.649C267.742 101.18 267.93 101.639 268.305 102.024C268.69 102.399 269.148 102.587 269.68 102.587H270.638C271.164 102.587 271.617 102.785 271.992 103.17C272.378 103.545 272.576 103.998 272.576 104.524C272.576 105.055 272.378 105.514 271.992 105.899C271.617 106.274 271.164 106.462 270.638 106.462H269.68C268.872 106.462 268.117 106.311 267.409 106.003C266.701 105.701 266.081 105.29 265.555 104.774C265.039 104.248 264.628 103.628 264.326 102.92C264.018 102.212 263.867 101.456 263.867 100.649V94.8366H262.43C261.898 94.8366 261.44 94.6491 261.055 94.2741C260.68 93.8887 260.492 93.4355 260.492 92.9199C260.492 92.3939 260.68 91.9408 261.055 91.5658C261.44 91.1803 261.898 90.9824 262.43 90.9824H263.867Z" fill="black"/>
<path d="M281.303 108.399C282.204 108.399 282.995 108.128 283.678 107.587C284.37 107.045 284.829 106.352 285.053 105.503C284.48 105.795 283.886 106.035 283.261 106.212C282.636 106.378 281.98 106.462 281.303 106.462C280.23 106.462 279.225 106.264 278.282 105.857C277.35 105.456 276.532 104.899 275.824 104.191C275.115 103.482 274.558 102.665 274.157 101.732C273.751 100.79 273.553 99.7845 273.553 98.7116V92.9199C273.553 92.3939 273.74 91.9408 274.115 91.5658C274.501 91.1803 274.959 90.9824 275.49 90.9824C276.016 90.9824 276.469 91.1803 276.844 91.5658C277.23 91.9408 277.428 92.3939 277.428 92.9199V98.7116C277.428 99.2533 277.521 99.7637 277.719 100.232C277.928 100.691 278.204 101.102 278.553 101.462C278.912 101.811 279.324 102.087 279.782 102.295C280.24 102.493 280.745 102.587 281.303 102.587C281.844 102.587 282.344 102.493 282.803 102.295C283.271 102.087 283.683 101.811 284.032 101.462C284.376 101.102 284.646 100.691 284.844 100.232C285.053 99.7637 285.157 99.2533 285.157 98.7116V92.9199C285.157 92.3939 285.35 91.9408 285.74 91.5658C286.126 91.1803 286.579 90.9824 287.094 90.9824C287.62 90.9824 288.074 91.1803 288.449 91.5658C288.834 91.9408 289.032 92.3939 289.032 92.9199V104.524C289.032 105.597 288.829 106.592 288.428 107.524C288.021 108.467 287.469 109.295 286.761 110.003C286.063 110.712 285.245 111.264 284.303 111.67C283.37 112.071 282.37 112.274 281.303 112.274C280.303 112.274 279.329 112.087 278.386 111.712C277.438 111.337 276.584 110.764 275.824 110.003C275.433 109.613 275.24 109.16 275.24 108.649C275.24 108.118 275.428 107.66 275.803 107.274C276.188 106.899 276.646 106.712 277.178 106.712C277.704 106.712 278.157 106.899 278.532 107.274C278.933 107.66 279.365 107.946 279.824 108.128C280.292 108.305 280.787 108.399 281.303 108.399Z" fill="black"/>
<path d="M303.557 104.523C303.557 105.055 303.359 105.513 302.973 105.898C302.598 106.273 302.145 106.461 301.619 106.461C301.088 106.461 300.63 106.273 300.244 105.898C299.869 105.513 299.682 105.055 299.682 104.523V92.9193C299.682 92.3932 299.869 91.9401 300.244 91.5651C300.63 91.1797 301.088 90.9818 301.619 90.9818C302.145 90.9818 302.598 91.1797 302.973 91.5651C303.359 91.9401 303.557 92.3932 303.557 92.9193V104.523ZM299.432 87.8359C299.432 87.2266 299.64 86.7109 300.057 86.2943C300.484 85.8672 301.005 85.6484 301.619 85.6484C302.229 85.6484 302.744 85.8672 303.161 86.2943C303.588 86.7109 303.807 87.2266 303.807 87.8359C303.807 88.4349 303.588 88.9505 303.161 89.3776C302.744 89.7943 302.229 90.0026 301.619 90.0026C301.005 90.0026 300.484 89.7943 300.057 89.3776C299.64 88.9505 299.432 88.4349 299.432 87.8359Z" fill="black"/>
<path d="M305.723 92.9199C305.723 92.3105 305.931 91.7949 306.348 91.3783C306.775 90.9512 307.296 90.7324 307.91 90.7324C308.353 90.7324 308.749 90.8522 309.098 91.0866C309.457 91.3105 309.712 91.6178 309.868 92.0033C310.452 91.6855 311.061 91.4355 311.702 91.2533C312.337 91.0762 313.014 90.9824 313.723 90.9824C314.79 90.9824 315.79 91.1855 316.723 91.5866C317.665 91.9928 318.483 92.5449 319.181 93.2533C319.889 93.9512 320.441 94.7689 320.848 95.7116C321.264 96.6439 321.473 97.6439 321.473 98.7116V104.524C321.473 105.055 321.275 105.514 320.889 105.899C320.499 106.274 320.046 106.462 319.535 106.462C319.004 106.462 318.546 106.274 318.16 105.899C317.785 105.514 317.598 105.055 317.598 104.524V98.7116C317.598 98.1699 317.493 97.6699 317.285 97.2116C317.087 96.7428 316.811 96.3314 316.452 95.9824C316.103 95.623 315.691 95.347 315.223 95.1491C314.764 94.9408 314.264 94.8366 313.723 94.8366C313.181 94.8366 312.671 94.9408 312.202 95.1491C311.743 95.347 311.332 95.623 310.973 95.9824C310.624 96.3314 310.348 96.7428 310.139 97.2116C309.941 97.6699 309.848 98.1699 309.848 98.7116V104.524C309.848 105.055 309.65 105.514 309.264 105.899C308.889 106.274 308.436 106.462 307.91 106.462C307.379 106.462 306.921 106.274 306.535 105.899C306.16 105.514 305.973 105.055 305.973 104.524V98.7116C305.973 97.3262 306.311 96.0553 306.993 94.8991C306.618 94.722 306.311 94.4564 306.077 94.1074C305.837 93.748 305.723 93.3522 305.723 92.9199Z" fill="black"/>
<path d="M325.811 90.9824V89.0449C325.811 88.5189 325.998 88.0658 326.373 87.6908C326.758 87.3053 327.217 87.1074 327.748 87.1074C328.274 87.1074 328.727 87.3053 329.102 87.6908C329.488 88.0658 329.686 88.5189 329.686 89.0449V90.9824H332.581C333.107 90.9824 333.561 91.1803 333.936 91.5658C334.321 91.9408 334.519 92.3939 334.519 92.9199C334.519 93.4355 334.321 93.8887 333.936 94.2741C333.561 94.6491 333.107 94.8366 332.581 94.8366H329.686V100.649C329.686 101.18 329.873 101.639 330.248 102.024C330.633 102.399 331.092 102.587 331.623 102.587H332.581C333.107 102.587 333.561 102.785 333.936 103.17C334.321 103.545 334.519 103.998 334.519 104.524C334.519 105.055 334.321 105.514 333.936 105.899C333.561 106.274 333.107 106.462 332.581 106.462H331.623C330.816 106.462 330.061 106.311 329.352 106.003C328.644 105.701 328.024 105.29 327.498 104.774C326.982 104.248 326.571 103.628 326.269 102.92C325.962 102.212 325.811 101.456 325.811 100.649V94.8366H324.373C323.842 94.8366 323.383 94.6491 322.998 94.2741C322.623 93.8887 322.436 93.4355 322.436 92.9199C322.436 92.3939 322.623 91.9408 322.998 91.5658C323.383 91.1803 323.842 90.9824 324.373 90.9824H325.811Z" fill="black"/>
<path d="M335.248 98.7116C335.248 97.6439 335.446 96.6439 335.852 95.7116C336.253 94.7689 336.811 93.9512 337.519 93.2533C338.227 92.5449 339.045 91.9928 339.977 91.5866C340.92 91.1855 341.925 90.9824 342.998 90.9824C344.066 90.9824 345.066 91.1855 345.998 91.5866C346.941 91.9928 347.769 92.5449 348.477 93.2533C349.186 93.9512 349.738 94.7689 350.144 95.7116C350.545 96.6439 350.748 97.6439 350.748 98.7116C350.748 99.7845 350.545 100.79 350.144 101.732C349.738 102.665 349.186 103.482 348.477 104.191C347.769 104.899 346.941 105.456 345.998 105.857C345.066 106.264 344.066 106.462 342.998 106.462C341.925 106.462 340.92 106.264 339.977 105.857C339.045 105.456 338.227 104.899 337.519 104.191C336.811 103.482 336.253 102.665 335.852 101.732C335.446 100.79 335.248 99.7845 335.248 98.7116ZM339.123 98.7116C339.123 99.2533 339.217 99.7637 339.415 100.232C339.623 100.691 339.899 101.102 340.248 101.462C340.607 101.811 341.019 102.087 341.477 102.295C341.946 102.493 342.456 102.587 342.998 102.587C343.54 102.587 344.04 102.493 344.498 102.295C344.967 102.087 345.378 101.811 345.727 101.462C346.087 101.102 346.363 100.691 346.561 100.232C346.769 99.7637 346.873 99.2533 346.873 98.7116C346.873 98.1699 346.769 97.6699 346.561 97.2116C346.363 96.7428 346.087 96.3314 345.727 95.9824C345.378 95.623 344.967 95.347 344.498 95.1491C344.04 94.9408 343.54 94.8366 342.998 94.8366C342.456 94.8366 341.946 94.9408 341.477 95.1491C341.019 95.347 340.607 95.623 340.248 95.9824C339.899 96.3314 339.623 96.7428 339.415 97.2116C339.217 97.6699 339.123 98.1699 339.123 98.7116Z" fill="black"/>
<path d="M373.157 104.191C372.391 104.956 371.532 105.524 370.574 105.899C369.626 106.274 368.662 106.462 367.678 106.462C366.605 106.462 365.6 106.264 364.657 105.857C363.725 105.456 362.907 104.899 362.199 104.191C361.49 103.482 360.933 102.665 360.532 101.732C360.126 100.79 359.928 99.7845 359.928 98.7116C359.928 97.6439 360.126 96.6439 360.532 95.7116C360.933 94.7689 361.49 93.9512 362.199 93.2533C362.907 92.5449 363.725 91.9928 364.657 91.5866C365.6 91.1855 366.605 90.9824 367.678 90.9824C368.662 90.9824 369.626 91.1699 370.574 91.5449C371.532 91.9095 372.391 92.472 373.157 93.2324C373.532 93.623 373.719 94.0814 373.719 94.6074C373.719 95.1387 373.521 95.597 373.136 95.9824C372.761 96.3574 372.308 96.5449 371.782 96.5449C371.24 96.5449 370.787 96.3522 370.428 95.9616C370.037 95.5605 369.605 95.2741 369.136 95.1074C368.662 94.9303 368.178 94.8366 367.678 94.8366C367.136 94.8366 366.626 94.9408 366.157 95.1491C365.699 95.347 365.287 95.623 364.928 95.9824C364.579 96.3314 364.303 96.7428 364.094 97.2116C363.896 97.6699 363.803 98.1699 363.803 98.7116C363.803 99.2533 363.896 99.7637 364.094 100.232C364.303 100.691 364.579 101.102 364.928 101.462C365.287 101.811 365.699 102.087 366.157 102.295C366.626 102.493 367.136 102.587 367.678 102.587C368.178 102.587 368.657 102.498 369.115 102.316C369.584 102.139 370.021 101.852 370.428 101.462C370.813 101.087 371.266 100.899 371.782 100.899C372.308 100.899 372.761 101.097 373.136 101.482C373.521 101.857 373.719 102.311 373.719 102.837C373.719 103.368 373.532 103.816 373.157 104.191Z" fill="black"/>
<path d="M379.293 104.524C379.293 105.055 379.095 105.514 378.71 105.899C378.335 106.274 377.882 106.462 377.355 106.462C376.824 106.462 376.366 106.274 375.98 105.899C375.605 105.514 375.418 105.055 375.418 104.524V87.1074C375.418 86.5814 375.605 86.1283 375.98 85.7533C376.366 85.3678 376.824 85.1699 377.355 85.1699C377.882 85.1699 378.335 85.3678 378.71 85.7533C379.095 86.1283 379.293 86.5814 379.293 87.1074V104.524Z" fill="black"/>
<path d="M380.979 98.7116C380.979 97.6439 381.176 96.6439 381.583 95.7116C381.984 94.7689 382.541 93.9512 383.249 93.2533C383.958 92.5449 384.775 91.9928 385.708 91.5866C386.65 91.1855 387.656 90.9824 388.729 90.9824C389.796 90.9824 390.796 91.1855 391.729 91.5866C392.671 91.9928 393.499 92.5449 394.208 93.2533C394.916 93.9512 395.468 94.7689 395.874 95.7116C396.275 96.6439 396.479 97.6439 396.479 98.7116C396.479 99.4199 396.385 100.097 396.208 100.732C396.025 101.373 395.77 101.982 395.437 102.566C395.822 102.722 396.13 102.977 396.354 103.337C396.588 103.686 396.708 104.081 396.708 104.524C396.708 105.139 396.489 105.66 396.062 106.087C395.645 106.503 395.135 106.712 394.541 106.712C394.093 106.712 393.692 106.592 393.333 106.357C392.984 106.123 392.718 105.816 392.541 105.441C391.385 106.123 390.114 106.462 388.729 106.462C387.656 106.462 386.65 106.264 385.708 105.857C384.775 105.456 383.958 104.899 383.249 104.191C382.541 103.482 381.984 102.665 381.583 101.732C381.176 100.79 380.979 99.7845 380.979 98.7116ZM384.854 98.7116C384.854 99.2533 384.947 99.7637 385.145 100.232C385.354 100.691 385.63 101.102 385.979 101.462C386.338 101.811 386.749 102.087 387.208 102.295C387.676 102.493 388.187 102.587 388.729 102.587C389.27 102.587 389.77 102.493 390.229 102.295C390.697 102.087 391.109 101.811 391.458 101.462C391.817 101.102 392.093 100.691 392.291 100.232C392.499 99.7637 392.604 99.2533 392.604 98.7116C392.604 98.1699 392.499 97.6699 392.291 97.2116C392.093 96.7428 391.817 96.3314 391.458 95.9824C391.109 95.623 390.697 95.347 390.229 95.1491C389.77 94.9408 389.27 94.8366 388.729 94.8366C388.187 94.8366 387.676 94.9408 387.208 95.1491C386.749 95.347 386.338 95.623 385.979 95.9824C385.63 96.3314 385.354 96.7428 385.145 97.2116C384.947 97.6699 384.854 98.1699 384.854 98.7116Z" fill="black"/>
<path d="M398.396 92.9199C398.396 92.3105 398.605 91.7949 399.021 91.3783C399.449 90.9512 399.969 90.7324 400.584 90.7324C401.027 90.7324 401.423 90.8522 401.771 91.0866C402.131 91.3105 402.386 91.6178 402.542 92.0033C403.126 91.6855 403.735 91.4355 404.376 91.2533C405.011 91.0762 405.688 90.9824 406.396 90.9824C406.923 90.9824 407.376 91.1803 407.751 91.5658C408.136 91.9408 408.334 92.3939 408.334 92.9199C408.334 93.4355 408.136 93.8887 407.751 94.2741C407.376 94.6491 406.923 94.8366 406.396 94.8366C405.855 94.8366 405.344 94.9408 404.876 95.1491C404.417 95.347 404.006 95.623 403.646 95.9824C403.298 96.3314 403.021 96.7428 402.813 97.2116C402.615 97.6699 402.521 98.1699 402.521 98.7116V104.524C402.521 105.055 402.324 105.514 401.938 105.899C401.563 106.274 401.11 106.462 400.584 106.462C400.053 106.462 399.594 106.274 399.209 105.899C398.834 105.514 398.646 105.055 398.646 104.524V98.7116C398.646 97.3262 398.985 96.0553 399.667 94.8991C399.292 94.722 398.985 94.4564 398.751 94.1074C398.511 93.748 398.396 93.3522 398.396 92.9199Z" fill="black"/>
<path d="M413.652 104.523C413.652 105.055 413.454 105.513 413.069 105.898C412.694 106.273 412.241 106.461 411.715 106.461C411.184 106.461 410.725 106.273 410.34 105.898C409.965 105.513 409.777 105.055 409.777 104.523V92.9193C409.777 92.3932 409.965 91.9401 410.34 91.5651C410.725 91.1797 411.184 90.9818 411.715 90.9818C412.241 90.9818 412.694 91.1797 413.069 91.5651C413.454 91.9401 413.652 92.3932 413.652 92.9193V104.523ZM409.527 87.8359C409.527 87.2266 409.736 86.7109 410.152 86.2943C410.579 85.8672 411.1 85.6484 411.715 85.6484C412.324 85.6484 412.84 85.8672 413.257 86.2943C413.684 86.7109 413.902 87.2266 413.902 87.8359C413.902 88.4349 413.684 88.9505 413.257 89.3776C412.84 89.7943 412.324 90.0026 411.715 90.0026C411.1 90.0026 410.579 89.7943 410.152 89.3776C409.736 88.9505 409.527 88.4349 409.527 87.8359Z" fill="black"/>
<path d="M418.484 90.9824V89.0449C418.484 88.5189 418.672 88.0658 419.047 87.6908C419.432 87.3053 419.891 87.1074 420.422 87.1074C420.948 87.1074 421.401 87.3053 421.776 87.6908C422.161 88.0658 422.359 88.5189 422.359 89.0449V90.9824H425.255C425.781 90.9824 426.234 91.1803 426.609 91.5658C426.995 91.9408 427.193 92.3939 427.193 92.9199C427.193 93.4355 426.995 93.8887 426.609 94.2741C426.234 94.6491 425.781 94.8366 425.255 94.8366H422.359V100.649C422.359 101.18 422.547 101.639 422.922 102.024C423.307 102.399 423.766 102.587 424.297 102.587H425.255C425.781 102.587 426.234 102.785 426.609 103.17C426.995 103.545 427.193 103.998 427.193 104.524C427.193 105.055 426.995 105.514 426.609 105.899C426.234 106.274 425.781 106.462 425.255 106.462H424.297C423.49 106.462 422.734 106.311 422.026 106.003C421.318 105.701 420.698 105.29 420.172 104.774C419.656 104.248 419.245 103.628 418.943 102.92C418.635 102.212 418.484 101.456 418.484 100.649V94.8366H417.047C416.516 94.8366 416.057 94.6491 415.672 94.2741C415.297 93.8887 415.109 93.4355 415.109 92.9199C415.109 92.3939 415.297 91.9408 415.672 91.5658C416.057 91.1803 416.516 90.9824 417.047 90.9824H418.484Z" fill="black"/>
<path d="M435.922 108.399C436.823 108.399 437.615 108.128 438.297 107.587C438.99 107.045 439.448 106.352 439.672 105.503C439.099 105.795 438.505 106.035 437.88 106.212C437.255 106.378 436.599 106.462 435.922 106.462C434.849 106.462 433.844 106.264 432.901 105.857C431.969 105.456 431.151 104.899 430.443 104.191C429.734 103.482 429.177 102.665 428.776 101.732C428.37 100.79 428.172 99.7845 428.172 98.7116V92.9199C428.172 92.3939 428.359 91.9408 428.734 91.5658C429.12 91.1803 429.578 90.9824 430.109 90.9824C430.635 90.9824 431.089 91.1803 431.464 91.5658C431.849 91.9408 432.047 92.3939 432.047 92.9199V98.7116C432.047 99.2533 432.141 99.7637 432.339 100.232C432.547 100.691 432.823 101.102 433.172 101.462C433.531 101.811 433.943 102.087 434.401 102.295C434.859 102.493 435.365 102.587 435.922 102.587C436.464 102.587 436.964 102.493 437.422 102.295C437.891 102.087 438.302 101.811 438.651 101.462C438.995 101.102 439.266 100.691 439.464 100.232C439.672 99.7637 439.776 99.2533 439.776 98.7116V92.9199C439.776 92.3939 439.969 91.9408 440.359 91.5658C440.745 91.1803 441.198 90.9824 441.714 90.9824C442.24 90.9824 442.693 91.1803 443.068 91.5658C443.453 91.9408 443.651 92.3939 443.651 92.9199V104.524C443.651 105.597 443.448 106.592 443.047 107.524C442.641 108.467 442.089 109.295 441.38 110.003C440.682 110.712 439.865 111.264 438.922 111.67C437.99 112.071 436.99 112.274 435.922 112.274C434.922 112.274 433.948 112.087 433.005 111.712C432.057 111.337 431.203 110.764 430.443 110.003C430.052 109.613 429.859 109.16 429.859 108.649C429.859 108.118 430.047 107.66 430.422 107.274C430.807 106.899 431.266 106.712 431.797 106.712C432.323 106.712 432.776 106.899 433.151 107.274C433.552 107.66 433.984 107.946 434.443 108.128C434.911 108.305 435.406 108.399 435.922 108.399Z" fill="black"/>
</svg>
